<svg width="42" height="36" viewBox="0 0 42 36" fill="none" xmlns="http://www.w3.org/2000/svg">
<g filter="url(#filter0_d_510_952)">
<rect x="4" width="34" height="28" rx="8" fill="#9CC5FF"/>
<g clip-path="url(#clip0_510_952)">
<path d="M16.7695 20.6886C16.7695 20.1763 17.1849 19.7609 17.6972 19.7609C18.2095 19.7609 18.6249 20.1763 18.6249 20.6886C18.6268 22.0871 19.7603 23.2206 21.1588 23.2225C22.836 23.2206 24.1957 21.8609 24.1975 20.1837C24.1948 18.1871 22.5766 16.5689 20.58 16.568H9.92769C9.41538 16.568 9 16.1526 9 15.6403C9 15.128 9.41538 14.7126 9.92769 14.7126H20.58C23.6003 14.7163 26.0483 17.1643 26.052 20.1846C26.0474 22.8855 23.8597 25.0732 21.1597 25.0778C18.7366 25.0751 16.7732 23.1117 16.7695 20.6886ZM22.0329 13.2902C21.5206 13.2902 21.1052 12.8748 21.1052 12.3625C21.1052 11.8502 21.5206 11.4348 22.0329 11.4348H27.7154C29.7129 11.432 31.3311 9.81385 31.332 7.81631C31.3302 6.13908 29.9705 4.77939 28.2932 4.77754C26.8948 4.77939 25.7612 5.91293 25.7594 7.31139C25.7594 7.8237 25.344 8.23908 24.8317 8.23908C24.3194 8.23908 23.904 7.8237 23.904 7.31139C23.9077 4.88831 25.8711 2.92585 28.2932 2.92308C30.9942 2.9277 33.1818 5.11539 33.1865 7.81539C33.1828 10.8366 30.7348 13.2846 27.7145 13.2883L22.0329 13.2902ZM9.92769 13.2902C9.41538 13.2902 9 12.8748 9 12.3625C9 11.8502 9.41538 11.4348 9.92769 11.4348H15.612C17.6086 11.432 19.2268 9.81385 19.2277 7.81631C19.224 6.13908 17.8652 4.78123 16.1889 4.77939C14.7905 4.78123 13.6569 5.91477 13.6551 7.31323C13.6551 7.82554 13.2397 8.24093 12.7274 8.24093C12.2151 8.24093 11.7997 7.82554 11.7997 7.31323C11.8025 4.89016 13.7658 2.92585 16.1889 2.92308C18.8898 2.9277 21.0775 5.11539 21.0822 7.81539C21.0785 10.8375 18.6286 13.2865 15.6065 13.2883L9.92769 13.2902Z" fill="black"/>
</g>
</g>
<defs>
<filter id="filter0_d_510_952" x="0" y="0" width="42" height="36" filterUnits="userSpaceOnUse" color-interpolation-filters="sRGB">
<feFlood flood-opacity="0" result="BackgroundImageFix"/>
<feColorMatrix in="SourceAlpha" type="matrix" values="0 0 0 0 0 0 0 0 0 0 0 0 0 0 0 0 0 0 127 0" result="hardAlpha"/>
<feOffset dy="4"/>
<feGaussianBlur stdDeviation="2"/>
<feComposite in2="hardAlpha" operator="out"/>
<feColorMatrix type="matrix" values="0 0 0 0 0 0 0 0 0 0 0 0 0 0 0 0 0 0 0.25 0"/>
<feBlend mode="normal" in2="BackgroundImageFix" result="effect1_dropShadow_510_952"/>
<feBlend mode="normal" in="SourceGraphic" in2="effect1_dropShadow_510_952" result="shape"/>
</filter>
<clipPath id="clip0_510_952">
<rect width="24" height="24" fill="white" transform="translate(9 2)"/>
</clipPath>
</defs>
</svg>
